<?xml version="1.0" encoding="utf-8"?>
<!-- Generator: Adobe Illustrator 27.5.0, SVG Export Plug-In . SVG Version: 6.00 Build 0)  -->
<svg version="1.1" xmlns="http://www.w3.org/2000/svg" xmlns:xlink="http://www.w3.org/1999/xlink" x="0px" y="0px"
	 viewBox="0 0 900 600" style="enable-background:new 0 0 900 600;" xml:space="preserve">
<g id="Layer_2">
	<rect style="fill:#FFFFFF;" width="900" height="600"/>
	<rect style="opacity:0;fill:#FFFFFF;" width="900" height="600"/>
</g>
<g id="Layer_1">
	<g>
		<path style="fill:#FFEDE6;" d="M222.852,353.809c0,0-37.787-68.426-4.085-100.085c33.702-31.66,52.085-49.021,66.383-97.021
			c14.298-48,45.958-63.319,109.277-58.213c63.319,5.106,140.936,31.66,140.936,31.66s86.808-37.787,132.766-16.34
			c45.958,21.447,48,67.404,29.617,119.489c-18.383,52.085,3.064,81.702,9.191,105.191c6.128,23.489,4.085,116.426-74.553,114.383
			c-78.638-2.043-408.511-94.979-408.511-94.979L222.852,353.809z"/>
		<g>
			<g>
				<g>
					<g>
						<g>
							<path style="fill:#9FB26B;" d="M234.018,514.303l-13.3,2.431c-0.368-0.624-0.744-1.236-1.137-1.825
								c-0.57-0.841-1.177-1.655-1.833-2.41c-6.517-7.511-16.725-12.639-26.403-10.361c-6.364,1.499-12.208,6.013-18.685,5.225
								c-10.605-1.294-14.507-15.016-23.579-20.657c-10.332-6.417-25.557-1.224-34.757-9.18c-7.367-6.379-6.582-18.102-1.571-26.723
								c0.68-1.171,1.434-2.275,2.252-3.309c7.358-9.244,19.177-14.769,30.993-14.469s23.344,6.417,30.224,16.026
								c7.262,10.14,10.114,24.297,21.043,30.31c5.279,2.908,11.602,3.297,17.114,5.756c4.739,2.122,9.234,6.638,12.781,12.251
								c2.866,4.498,5.119,9.708,6.418,14.98C233.739,513.002,233.889,513.656,234.018,514.303z"/>
						</g>
					</g>
				</g>
				<g>
					<g>
						<g>
							<path style="fill:#FFFFFF;" d="M229.725,515.442c-0.358-0.601-0.727-1.2-1.113-1.787c-1.153-1.796-2.419-3.55-3.768-5.221
								c-4.154-5.143-8.998-9.339-14.398-12.471c-6.224-3.611-12.712-4.194-19.581-4.813c-6.613-0.594-13.451-1.208-19.962-4.773
								c-5.991-3.271-10.611-9.478-15.08-15.479c-4.446-5.974-9.045-12.149-14.855-15.148c-8.702-4.5-23.758-4.16-28.167-3.948
								l-0.096-1.998c5.812-0.276,20.287-0.43,29.181,4.169c6.221,3.21,10.959,9.575,15.542,15.73
								c4.34,5.829,8.828,11.857,14.436,14.919c6.146,3.365,12.772,3.961,19.181,4.537c6.784,0.609,13.799,1.24,20.406,5.073
								c5.612,3.256,10.642,7.611,14.951,12.945c1.395,1.727,2.703,3.539,3.889,5.387c0.396,0.601,0.78,1.226,1.154,1.853
								L229.725,515.442z"/>
						</g>
					</g>
				</g>
				<g>
					<g>
						<g>
							<path style="fill:#9FB26B;" d="M240.907,432.145c-2.932,9.096-5.88,20.552,1.184,26.997c2.902,2.641,6.943,3.722,9.93,6.277
								c5.071,4.329,5.952,11.985,4.403,18.469c-1.923,8.057-5.074,17.233-8.178,25.781c-0.273,0.731-0.536,1.46-0.801,2.18
								l-22.989,4.202c0.058-0.682,0.135-1.377,0.221-2.074c0.257-1.989,0.589-4.062,0.946-6.171
								c0.571-3.439,1.183-6.986,1.538-10.437c1.05-10.327-0.284-19.741-12.334-22.539c-5.192-1.206-11.136,0.643-15.688-2.124
								c-7.185-4.38-4.646-15.182-6.481-23.386c-1.712-7.698-7.903-13.702-14.77-17.571c-6.877-3.866-14.55-6.022-21.84-9.03
								c-16.056-6.641-30.658-18.011-38.381-33.566c-7.733-15.553-7.557-35.5,2.84-49.416
								c10.387-13.915,31.558-19.503,46.292-10.302c15.732,9.821,21.389,32.646,38.901,38.746c6.547,2.28,13.813,1.765,20.343,4.068
								c10.772,3.815,17.703,14.93,19.393,26.23C247.117,409.784,244.398,421.27,240.907,432.145z"/>
						</g>
					</g>
				</g>
				<g>
					<g>
						<g>
							<path style="fill:#FFFFFF;" d="M234.08,514.11l-0.005-2.029c-0.031-2.915,0.167-5.952,0.375-9.167
								c0.644-9.928,1.309-20.192-5.156-26.098c-11.523-10.523-14.43-21.84-17.241-32.783c-3.753-14.609-7.633-29.716-32.314-43.791
								c-2.628-1.499-5.39-2.987-8.061-4.427c-20.265-10.918-43.233-23.293-46.765-61.699l1.991-0.184
								c3.434,37.339,24.932,48.921,45.722,60.122c2.682,1.445,5.455,2.938,8.104,4.449c25.415,14.495,29.403,30.02,33.259,45.032
								c2.864,11.149,5.57,21.682,16.653,31.804c7.174,6.553,6.477,17.305,5.803,27.703c-0.206,3.177-0.4,6.178-0.371,9.023
								l0.005,2.042L234.08,514.11z"/>
						</g>
					</g>
				</g>
				<g>
					<g>
						<g>
							<path style="fill:#633F3F;" d="M155.666,423.645c-17.847-7.382-31.66-19.473-38.894-34.045l1.791-0.889
								c7.02,14.138,20.468,25.888,37.868,33.086L155.666,423.645z"/>
						</g>
					</g>
				</g>
				<g>
					<g>
						<g>
							<path style="fill:#633F3F;" d="M223.347,517.269l0.112-1.305c0.06-0.693,0.137-1.4,0.224-2.109
								c0.284-2.197,0.658-4.475,0.953-6.216l0.148-0.895c0.521-3.125,1.059-6.357,1.381-9.477
								c0.922-9.069,0.27-18.714-11.565-21.463c-1.956-0.454-4.111-0.446-6.2-0.446c-3.351,0.014-6.803,0.014-9.781-1.797
								c-5.412-3.299-5.759-9.801-6.095-16.089c-0.144-2.692-0.292-5.476-0.843-7.933l1.952-0.438
								c0.586,2.621,0.739,5.489,0.888,8.263c0.322,6.037,0.627,11.738,5.138,14.488c2.497,1.518,5.529,1.525,8.737,1.505
								c2.201,0.002,4.475-0.009,6.656,0.499c13.424,3.118,14.054,14.258,13.102,23.614c-0.328,3.183-0.872,6.446-1.397,9.602
								l-0.149,0.897c-0.292,1.725-0.662,3.978-0.941,6.135c-0.03,0.241-0.058,0.482-0.085,0.723l21.12-3.86l0.606-1.648
								c2.739-7.542,6.142-17.283,8.142-25.663c1.343-5.619,0.976-13.161-4.08-17.477c-1.362-1.164-2.958-2.004-4.647-2.894
								c-1.827-0.961-3.715-1.955-5.307-3.404l1.347-1.479c1.402,1.276,3.098,2.169,4.892,3.113
								c1.712,0.901,3.483,1.833,5.015,3.143c5.741,4.901,6.206,13.267,4.726,19.462c-2.023,8.478-5.45,18.289-8.21,25.89l-1,2.719
								L223.347,517.269z"/>
						</g>
					</g>
				</g>
				<g>
					<g>
						<g>
							<path style="fill:#633F3F;" d="M241.859,432.451l-1.904-0.611c3.188-9.928,6.214-21.637,4.494-33.21
								c-1.803-12.059-9.157-22.043-18.737-25.436c-3.179-1.121-6.65-1.568-10.006-2c-3.429-0.441-6.975-0.897-10.331-2.066
								l0.657-1.889c3.161,1.101,6.602,1.543,9.929,1.972c3.46,0.445,7.038,0.905,10.418,2.098
								c10.269,3.637,18.138,14.245,20.049,27.026C248.207,410.316,245.117,422.305,241.859,432.451z"/>
						</g>
					</g>
				</g>
				<g>
					<g>
						<g>
							<path style="fill:#633F3F;" d="M113.288,363.877l-1.998-0.088c0.405-9.296,3.315-17.82,8.417-24.649
								c11.12-14.895,32.928-19.727,47.623-10.552c7.226,4.512,12.374,11.699,17.353,18.65c1.771,2.474,3.603,5.031,5.482,7.395
								l-1.566,1.244c-1.91-2.402-3.757-4.98-5.542-7.474c-4.866-6.793-9.897-13.817-16.787-18.118
								c-13.849-8.648-34.438-4.044-44.961,10.052C116.449,346.843,113.675,354.982,113.288,363.877z"/>
						</g>
					</g>
				</g>
				<g>
					<g>
						<g>
							<path style="fill:#633F3F;" d="M174.18,508.454c-0.543,0-1.09-0.031-1.642-0.098l0.241-1.986
								c3.833,0.471,7.466-1.067,11.313-2.691c2.263-0.956,4.602-1.943,7.023-2.514l0.458,1.947
								c-2.256,0.531-4.517,1.485-6.703,2.408C181.448,506.966,177.924,508.454,174.18,508.454z"/>
						</g>
					</g>
				</g>
				<g>
					<g>
						<g>
							<path style="fill:#633F3F;" d="M113.669,478.282c-7.88-6.823-6.861-19.241-1.781-27.981c0.694-1.194,1.479-2.347,2.332-3.426
								c7.535-9.467,19.723-15.146,31.803-14.85c12.087,0.308,23.971,6.609,31.012,16.444l-1.626,1.164
								c-6.684-9.336-17.964-15.316-29.437-15.608c-11.464-0.305-23.035,5.108-30.186,14.093c-0.793,1.002-1.523,2.075-2.169,3.188
								c-4.667,8.028-5.698,19.354,1.361,25.465L113.669,478.282z"/>
						</g>
					</g>
				</g>
			</g>
			<g>
				<g>
					<g>
						<ellipse style="fill:#E4EDFC;" cx="455.639" cy="541.437" rx="336.447" ry="22.085"/>
					</g>
				</g>
			</g>
			<g>
				<g>
					<g>
						<g>
							<path style="fill:#9FB26B;" d="M622.307,320.977l12.371,5.453c0.503-0.521,1.011-1.03,1.529-1.512
								c0.75-0.686,1.529-1.337,2.343-1.918c8.083-5.792,19.203-8.409,28.088-3.946c5.842,2.936,10.477,8.684,16.961,9.422
								c10.616,1.204,17.597-11.237,27.732-14.616c11.54-3.842,25.142,4.745,35.939-0.857c8.647-4.494,10.606-16.078,7.734-25.628
								c-0.39-1.297-0.867-2.546-1.422-3.741c-5.01-10.7-15.222-18.819-26.786-21.272c-11.563-2.452-24.196,0.82-33.12,8.569
								c-9.418,8.176-15.48,21.284-27.507,24.594c-5.81,1.603-12.051,0.513-17.983,1.624c-5.102,0.964-10.523,4.312-15.277,8.948
								c-3.832,3.71-7.234,8.254-9.722,13.08C622.88,319.776,622.583,320.377,622.307,320.977z"/>
						</g>
					</g>
				</g>
				<g>
					<g>
						<g>
							<path style="fill:#FFFFFF;" d="M626.217,323.083l-1.432-1.397c0.509-0.522,1.027-1.041,1.56-1.542
								c1.571-1.512,3.265-2.971,5.025-4.328c4.653-3.59,10.067-5.913,15.304-8.159c0.711-0.306,1.422-0.61,2.133-0.919
								c7.697-3.344,14.931-2.443,21.923-1.572c6.806,0.848,13.842,1.725,21.364-1.358c5.513-2.259,9.957-6.255,14.255-10.121
								c5.193-4.67,10.564-9.499,17.842-11.295c8.321-2.061,21.731,1.311,31.091,4.024l-0.557,1.921
								c-5.267-1.527-21.293-6.175-30.055-4.004c-6.793,1.676-11.743,6.128-16.983,10.841c-4.425,3.979-9.001,8.093-14.835,10.485
								c-8.006,3.281-15.307,2.371-22.369,1.492c-7.035-0.876-13.682-1.706-20.879,1.421c-0.714,0.311-1.428,0.616-2.141,0.923
								c-5.357,2.299-10.418,4.47-14.872,7.905c-1.702,1.313-3.341,2.725-4.868,4.193
								C627.203,322.083,626.706,322.581,626.217,323.083z"/>
						</g>
					</g>
				</g>
				<g>
					<g>
						<g>
							<path style="fill:#9FB26B;" d="M634.688,239.466c0.74,9.528,0.946,21.356-7.422,25.984
								c-3.436,1.895-7.617,2.008-11.117,3.799c-5.938,3.033-8.573,10.275-8.572,16.942c-0.001,8.283,0.933,17.941,1.966,26.975
								c0.096,0.774,0.182,1.545,0.273,2.306l21.384,9.427c0.102-0.677,0.189-1.37,0.267-2.068c0.212-1.994,0.37-4.088,0.513-6.222
								c0.243-3.477,0.472-7.07,0.928-10.509c1.377-10.289,4.861-19.135,17.232-19.059c5.33,0.033,10.682,3.212,15.752,1.578
								c8.005-2.591,8.045-13.688,11.735-21.241c3.453-7.09,10.869-11.492,18.447-13.66c7.587-2.164,15.551-2.478,23.34-3.711
								c17.159-2.731,34.003-10.398,45.127-23.734c11.133-13.332,15.595-32.774,8.714-48.725
								c-6.872-15.947-26.165-26.298-42.634-20.771c-17.583,5.899-28.386,26.786-46.836,28.652
								c-6.897,0.697-13.845-1.491-20.732-0.768c-11.363,1.209-20.687,10.41-24.954,21.009
								C633.841,216.274,633.817,228.077,634.688,239.466z"/>
						</g>
					</g>
				</g>
				<g>
					<g>
						<g>
							<path style="fill:#FFFFFF;" d="M619.488,316.661l-1.939-0.484c0.671-2.688,1.22-5.599,1.801-8.682
								c1.919-10.188,4.095-21.734,11.715-27.73c16.876-13.279,20.349-25.876,23.707-38.057
								c3.191-11.575,6.205-22.509,21.221-31.351c4.813-2.84,13.967-3.74,24.565-4.782c24.56-2.416,58.198-5.723,67.822-35.15
								l1.9,0.622c-10.029,30.668-44.418,34.049-69.527,36.519c-10.362,1.019-19.312,1.899-23.745,4.515
								c-14.318,8.432-17.094,18.5-20.308,30.16c-3.283,11.911-7.006,25.412-24.398,39.097c-7.029,5.532-9.132,16.686-10.986,26.528
								C620.728,310.978,620.175,313.918,619.488,316.661z"/>
						</g>
					</g>
				</g>
				<g>
					<g>
						<g>
							<path style="fill:#5E3B3B;" d="M719.571,250.995l-0.314-1.976c18.596-2.96,34.405-11.265,44.518-23.387l1.535,1.281
								C754.888,239.407,738.644,247.959,719.571,250.995z"/>
						</g>
					</g>
				</g>
				<g>
					<g>
						<g>
							<path style="fill:#5E3B3B;" d="M631.995,326.341l-23.104-10.185l-0.34-2.868c-0.921-8.048-1.976-18.392-1.974-27.098
								c-0.001-6.369,2.393-14.398,9.116-17.832c1.794-0.918,3.733-1.413,5.608-1.892c1.965-0.502,3.82-0.976,5.481-1.892
								l0.965,1.751c-1.884,1.039-3.951,1.567-5.951,2.078c-1.85,0.473-3.598,0.919-5.193,1.735
								c-5.919,3.023-8.027,10.274-8.026,16.052c-0.002,8.605,1.046,18.875,1.959,26.861l0.207,1.735l19.645,8.66
								c0.029-0.242,0.058-0.485,0.085-0.729c0.229-2.155,0.393-4.434,0.509-6.177l0.062-0.882c0.223-3.201,0.452-6.511,0.873-9.691
								c1.242-9.287,4.424-19.929,18.067-19.929c0.054,0,0.106,0,0.161,0c2.239,0.014,4.45,0.546,6.589,1.061
								c3.12,0.751,6.067,1.462,8.851,0.565c5.024-1.626,6.646-7.102,8.361-12.898c0.788-2.663,1.604-5.417,2.782-7.83l1.797,0.878
								c-1.106,2.263-1.896,4.935-2.662,7.52c-1.787,6.038-3.636,12.282-9.664,14.233c-3.316,1.071-6.682,0.26-9.934-0.523
								c-2.027-0.488-4.125-0.994-6.132-1.006c-0.049,0-0.098,0-0.146,0c-12.029,0-14.884,9.191-16.089,18.192
								c-0.413,3.117-0.641,6.396-0.86,9.566l-0.061,0.879c-0.118,1.759-0.283,4.063-0.517,6.258
								c-0.08,0.716-0.169,1.423-0.272,2.11L631.995,326.341z"/>
						</g>
					</g>
				</g>
				<g>
					<g>
						<g>
							<path style="fill:#5E3B3B;" d="M633.69,239.542c-0.812-10.627-1.033-23.005,3.481-34.244
								c4.827-11.988,14.944-20.478,25.776-21.631c3.564-0.376,7.15,0.009,10.618,0.378c3.337,0.356,6.789,0.725,10.118,0.388
								l0.201,1.99c-3.537,0.357-7.092-0.023-10.531-0.39c-3.364-0.359-6.843-0.73-10.196-0.378
								c-10.105,1.075-19.577,9.078-24.131,20.388c-4.361,10.857-4.137,22.949-3.343,33.346L633.69,239.542z"/>
						</g>
					</g>
				</g>
				<g>
					<g>
						<g>
							<path style="fill:#5E3B3B;" d="M776.636,203.083l-1.963-0.38c1.689-8.741,0.881-17.302-2.335-24.758
								c-6.962-16.155-25.919-25.414-41.397-20.22c-7.7,2.583-14.225,8.246-20.534,13.723c-2.316,2.011-4.712,4.09-7.128,5.984
								l-1.234-1.574c2.378-1.863,4.754-3.925,7.052-5.92c6.457-5.604,13.133-11.399,21.208-14.109
								c16.428-5.512,36.515,4.254,43.87,21.324C777.551,184.979,778.401,193.945,776.636,203.083z"/>
						</g>
					</g>
				</g>
				<g>
					<g>
						<g>
							<path style="fill:#5E3B3B;" d="M683.486,329.471c-4.365-0.497-7.909-3.102-11.336-5.621c-1.912-1.406-3.889-2.859-5.961-3.9
								l0.898-1.787c2.223,1.117,4.269,2.621,6.247,4.076c3.364,2.473,6.542,4.809,10.378,5.246L683.486,329.471z"/>
						</g>
					</g>
				</g>
				<g>
					<g>
						<g>
							<path style="fill:#5E3B3B;" d="M747.73,313.893l-0.922-1.775c8.284-4.306,9.912-15.56,7.237-24.452
								c-0.37-1.234-0.832-2.448-1.371-3.608c-4.867-10.396-14.863-18.335-26.085-20.715c-11.232-2.379-23.588,0.818-32.258,8.346
								l-1.311-1.51c9.133-7.931,22.153-11.302,33.982-8.792c11.823,2.507,22.354,10.871,27.483,21.826
								c0.581,1.248,1.076,2.552,1.475,3.877C758.873,296.77,756.98,309.085,747.73,313.893z"/>
						</g>
					</g>
				</g>
			</g>
			<g>
				<g>
					<g>
						<g>
							<polygon style="fill:#5E3B3B;" points="659.963,303.394 482.222,410.14 304.702,303.423 							"/>
						</g>
					</g>
				</g>
				<g>
					<g>
						<g>
							<g>
								<path style="fill:#5E3B3B;" d="M660.85,303.426L493.02,176.415c-6.473-4.899-15.343-4.894-21.811,0.013L303.815,303.426
									H660.85z"/>
							</g>
						</g>
					</g>
					<g>
						<g>
							<g>
								<path style="fill:#633F3F;" d="M622.368,274.303L493.02,176.415c-6.473-4.899-15.343-4.894-21.811,0.013L319.442,291.57
									L622.368,274.303z"/>
							</g>
						</g>
					</g>
				</g>
				<g>
					<g>
						<g>
							<g>
								<path style="fill:#5E3B3B;" d="M336.772,118.944v-0.46c0-21.371-17.33-38.692-38.701-38.692
									c-21.362,0-38.692,17.321-38.692,38.692v0.46H336.772z"/>
							</g>
						</g>
					</g>
					<g>
						<g>
							<g>
								<path style="fill:#FFFFFF;" d="M637.723,500.071H377.175c-21.371,0-38.701-17.33-38.701-38.701l-1.795-342.889
									c0-21.371-17.33-38.701-38.701-38.701h290.485c21.371,0,38.701,17.33,38.701,38.701l1.804,280.706h-0.009v62.184
									C628.959,482.741,616.351,500.071,637.723,500.071z"/>
							</g>
						</g>
					</g>
					<g>
						<g>
							<g>
								<g>
									<g>
										<g>
											<rect x="374.32" y="416.513" style="fill:#5E3B3B;" width="31.748" height="1.5"/>
										</g>
									</g>
								</g>
							</g>
							<g>
								<g>
									<g>
										<g>
											<rect x="421.711" y="416.513" style="fill:#5E3B3B;" width="109.848" height="1.5"/>
										</g>
									</g>
								</g>
							</g>
							<g>
								<g>
									<g>
										<g>
											<rect x="374.32" y="209.225" style="fill:#5E3B3B;" width="31.748" height="1.5"/>
										</g>
									</g>
								</g>
							</g>
							<g>
								<g>
									<g>
										<g>
											<rect x="421.711" y="209.225" style="fill:#5E3B3B;" width="91.806" height="1.5"/>
										</g>
									</g>
								</g>
							</g>
							<g>
								<g>
									<g>
										<g>
											<rect x="374.32" y="222.757" style="fill:#5E3B3B;" width="78.313" height="1.5"/>
										</g>
									</g>
								</g>
							</g>
							<g>
								<g>
									<g>
										<g>
											<rect x="374.32" y="360.322" style="fill:#5E3B3B;" width="31.748" height="1.5"/>
										</g>
									</g>
								</g>
							</g>
							<g>
								<g>
									<g>
										<g>
											<rect x="421.711" y="360.322" style="fill:#5E3B3B;" width="109.848" height="1.5"/>
										</g>
									</g>
								</g>
							</g>
							<g>
								<g>
									<g>
										<g>
											<rect x="374.32" y="373.853" style="fill:#5E3B3B;" width="78.313" height="1.5"/>
										</g>
									</g>
								</g>
							</g>
							<g>
								<g>
									<g>
										<g>
											<rect x="467.816" y="373.853" style="fill:#5E3B3B;" width="98.159" height="1.5"/>
										</g>
									</g>
								</g>
							</g>
							<g>
								<g>
									<g>
										<g>
											<rect x="374.32" y="331.607" style="fill:#5E3B3B;" width="50.673" height="1.5"/>
										</g>
									</g>
								</g>
							</g>
							<g>
								<g>
									<g>
										<g>
											<rect x="374.32" y="345.139" style="fill:#5E3B3B;" width="80.865" height="1.5"/>
										</g>
									</g>
								</g>
							</g>
							<g>
								<g>
									<g>
										<g>
											<rect x="470.618" y="345.139" style="fill:#5E3B3B;" width="35.202" height="1.5"/>
										</g>
									</g>
								</g>
							</g>
							<g>
								<g>
									<g>
										<g>
											<rect x="374.32" y="195.522" style="fill:#5E3B3B;" width="80.865" height="1.5"/>
										</g>
									</g>
								</g>
							</g>
							<g>
								<g>
									<g>
										<g>
											<rect x="471.618" y="195.522" style="fill:#5E3B3B;" width="35.202" height="1.5"/>
										</g>
									</g>
								</g>
							</g>
							<g>
								<g>
									<g>
										<g>
											<rect x="439.984" y="331.607" style="fill:#5E3B3B;" width="35.202" height="1.5"/>
										</g>
									</g>
								</g>
							</g>
							<g>
								<g>
									<g>
										<g>
											<rect x="490.33" y="331.607" style="fill:#5E3B3B;" width="87.967" height="1.5"/>
										</g>
									</g>
								</g>
							</g>
							<g>
								<g>
									<g>
										<g>
											<rect x="374.32" y="387.777" style="fill:#5E3B3B;" width="50.673" height="1.5"/>
										</g>
									</g>
								</g>
							</g>
							<g>
								<g>
									<g>
										<g>
											<rect x="374.32" y="401.309" style="fill:#5E3B3B;" width="80.865" height="1.5"/>
										</g>
									</g>
								</g>
							</g>
							<g>
								<g>
									<g>
										<g>
											<rect x="470.618" y="401.309" style="fill:#5E3B3B;" width="35.202" height="1.5"/>
										</g>
									</g>
								</g>
							</g>
							<g>
								<g>
									<g>
										<g>
											<rect x="439.984" y="387.777" style="fill:#5E3B3B;" width="35.202" height="1.5"/>
										</g>
									</g>
								</g>
							</g>
							<g>
								<g>
									<g>
										<g>
											<rect x="490.33" y="387.777" style="fill:#5E3B3B;" width="87.967" height="1.5"/>
										</g>
									</g>
								</g>
							</g>
							<g>
								<g>
									<g>
										<g>
											<rect x="522.618" y="195.522" style="fill:#5E3B3B;" width="54.878" height="1.5"/>
										</g>
									</g>
								</g>
							</g>
						</g>
						<g>
							<g>
								<g>
									<g>
										<rect x="374.282" y="140.319" style="fill:#5E3B3B;" width="99.503" height="12.899"/>
									</g>
								</g>
							</g>
							<g>
								<g>
									<g>
										<rect x="374.282" y="161.068" style="fill:#5E3B3B;" width="99.503" height="4.683"/>
									</g>
								</g>
							</g>
						</g>
						<g>
							<g>
								<g>
									<rect x="374.321" y="237.039" style="fill:#DCE7F9;" width="231.098" height="81.191"/>
								</g>
							</g>
						</g>
					</g>
					<g>
						<g>
							<g>
								<path style="fill:#5E3B3B;" d="M627.841,399.704l-1.805-280.707c0-20.795-16.913-37.707-37.701-37.707v-2
									c21.892,0,39.701,17.81,39.701,39.701l1.805,280.699L627.841,399.704z"/>
							</g>
						</g>
					</g>
					<g>
						<g>
							<g>
								<path style="fill:#5E3B3B;" d="M378.6,501.467h-1.553c-21.891,0-39.701-17.758-39.701-39.586l-1.795-342.884
									c0-20.794-16.913-37.707-37.701-37.707v-2h173.108v2H310.303c15.811,5.235,27.249,20.158,27.249,37.701l1.795,342.885
									c0,20.73,16.913,37.591,37.701,37.591h1.553c23.362,0,32.561-20.613,36.163-37.905l1.958,0.408
									C411.338,487.809,398.156,501.467,378.6,501.467z"/>
							</g>
						</g>
					</g>
					<g>
						<g>
							<g>
								<g>
									<g>
										
											<rect x="235.339" y="84.787" transform="matrix(0.4796 -0.8775 0.8775 0.4796 41.0681 255.9533)" style="fill:#5E3B3B;" width="2" height="17.127"/>
									</g>
								</g>
							</g>
						</g>
						<g>
							<g>
								<g>
									<g>
										
											<rect x="224.791" y="106.855" transform="matrix(0.996 -0.0898 0.0898 0.996 -8.7458 21.4)" style="fill:#5E3B3B;" width="17.127" height="2"/>
									</g>
								</g>
							</g>
						</g>
					</g>
				</g>
				<g>
					<g>
						<g>
							<path style="fill:#AFCAF9;" d="M660.184,303.423v206.34c0,9.37-7.44,16.966-16.618,16.966H321.319
								c-9.178,0-16.618-7.596-16.618-16.966v-206.34l177.741,106.746L660.184,303.423z"/>
						</g>
					</g>
				</g>
				<g>
					<g>
						<g>
							<g>
								<g>
									<path style="fill:#AFCAF9;" d="M545.815,439.777l-52.508-39.092c-6.58-4.899-15.596-4.893-22.171,0.013l-132.199,98.667
										L545.815,439.777z"/>
								</g>
							</g>
						</g>
						<g>
							<g>
								<g>
									<path style="fill:#5E3B3B;" d="M381.818,468.609l-1.196-1.604l89.917-67.109c6.875-5.132,16.483-5.139,23.366-0.014
										l52.507,39.092l-1.194,1.603l-52.507-39.092c-6.18-4.6-14.805-4.595-20.976,0.014L381.818,468.609z"/>
								</g>
							</g>
						</g>
					</g>
					<g>
						<g>
							<g>
								<path style="fill:#633F3F;" d="M483.852,527.729H321.319c-9.714,0-17.618-8.06-17.618-17.966V382.99h2v126.773
									c0,8.804,7.006,15.966,15.618,15.966h162.533V527.729z"/>
							</g>
						</g>
					</g>
					<g>
						<g>
							<g>
								<path style="fill:#5E3B3B;" d="M643.566,527.729h-19.97v-2h19.97c8.612,0,15.618-7.162,15.618-15.966v-93.272h2v93.272
									C661.184,519.67,653.281,527.729,643.566,527.729z"/>
							</g>
						</g>
					</g>
					<g>
						<g>
							<g>
								<polygon style="fill:#5E3B3B;" points="467.956,402.156 305.624,305.185 305.624,356.469 303.624,356.469 303.624,301.662 
									468.982,400.439 								"/>
							</g>
						</g>
					</g>
				</g>
			</g>
			<g>
				<g>
					<g>
						<g>
							<g>
								<g>
									<path style="fill:#5E3B3B;" d="M485.017,57.877v41.822c0,6.389,0.114,30.176,0.114,30.176l22.106-18.606h56.186
										c6.547,0,11.854-5.18,11.854-11.569V57.877c0-6.389-5.308-11.569-11.854-11.569h-66.561
										C490.325,46.308,485.017,51.488,485.017,57.877z"/>
								</g>
							</g>
						</g>
					</g>
				</g>
				<g>
					<g>
						<g>
							<g>
								<g>
									<path style="fill:#FFC76C;" d="M486.103,49.047v41.822c0,6.389,0.111,30.175,0.111,30.175l21.574-18.606h54.835
										c6.389,0,11.569-5.18,11.569-11.569V49.047c0-6.389-5.18-11.569-11.569-11.569h-64.96
										C491.283,37.478,486.103,42.658,486.103,49.047z"/>
								</g>
							</g>
						</g>
						<g>
							<g>
								<g>
									<g>
										<g>
											<g>
												<g>
													<polygon style="fill:#FFFFFF;" points="526.639,80.553 533.746,80.543 537.807,46.667 522.488,46.687 													"/>
												</g>
											</g>
										</g>
									</g>
								</g>
							</g>
							<g>
								<g>
									<g>
										<path style="fill:#FFFFFF;" d="M534.658,88.345c0,2.491-2.02,4.511-4.511,4.511c-2.491,0-4.511-2.02-4.511-4.511
											c0-2.491,2.02-4.511,4.511-4.511C532.638,83.834,534.658,85.854,534.658,88.345z"/>
									</g>
								</g>
							</g>
						</g>
					</g>
					<g>
						<g>
							<g>
								<path style="fill:#633F3F;" d="M485.103,123.22V49.047c0-6.931,5.634-12.569,12.56-12.569h64.96
									c6.931,0,12.569,5.639,12.569,12.569v41.822c0,6.931-5.639,12.569-12.569,12.569h-54.465L485.103,123.22z M497.662,38.478
									c-5.823,0-10.56,4.741-10.56,10.569v69.821l20.315-17.43h55.205c5.828,0,10.569-4.741,10.569-10.569V49.047
									c0-5.828-4.741-10.569-10.569-10.569H497.662z"/>
							</g>
						</g>
					</g>
				</g>
			</g>
			<g>
				<g>
					<g>
						<g>
							<g>
								
									<rect x="629.896" y="73.767" transform="matrix(0.8833 -0.4688 0.4688 0.8833 39.4447 308.0096)" style="fill:#5E3B3B;" width="17.126" height="2"/>
							</g>
						</g>
					</g>
				</g>
				<g>
					<g>
						<g>
							<g>
								
									<rect x="619.424" y="63.297" transform="matrix(0.4728 -0.8812 0.8812 0.4728 274.4076 587.2534)" style="fill:#5E3B3B;" width="17.127" height="1.999"/>
							</g>
						</g>
					</g>
				</g>
			</g>
			<g>
				<g>
					<g>
						<g>
							<g>
								<path style="fill:#FFB789;" d="M587.016,355.5l2.882-4.247l5.617,3.66l-2.433,4.354c-0.521,0.933-0.74,2.004-0.625,3.066
									c0,0,0.862,5.423,0.76,6.538c-0.085,0.936-2.468,5.532-3.319,5.958c-0.582,0.291-1.532-0.341-1.532-0.341
									s1.787-8.936,0.766-10.723c-0.418-0.732-1.179-1.763-1.932-2.727C585.942,359.427,585.868,357.19,587.016,355.5z"/>
							</g>
						</g>
					</g>
					<g>
						<g>
							<g>
								<path style="fill:#FFB284;" d="M550.063,280.142l5.029-1.835l4.257-15.205l10.754,0.054l2.689,15.927l7.343,1.829
									c0,0-5.067,7.799-15.408,7.799C551.983,288.71,550.063,280.142,550.063,280.142z"/>
							</g>
						</g>
					</g>
					<g>
						<g>
							<g>
								<path style="fill:#FFB284;" d="M567.693,267.766c-4.014,2.988-10.856,2.95-14.363,2.076
									c-3.705-0.924-7.557-3.214-2.508-13.803c3.477-7.291,3.182-9.202,4.615-12.464c0.942-2.143,3.321-3.636,7.696-3.207
									C570.543,241.094,580.802,258.011,567.693,267.766z"/>
							</g>
						</g>
					</g>
					<g>
						<g>
							<g>
								<path style="fill:#F75D59;" d="M594.841,358.897c0,0,19.694-15.008,21.354-31.134c1.147-11.144-13.929-37.017-24.955-44.109
									c-3.582-2.304-10.997-5.597-14.987-5.993c-6.271-0.622-11.954-0.749-23.469,0.683c-4.424,0.551-7.06-0.209-13.963,4.095
									c-8.844,5.515-25.248,27.1-25.248,27.1l25.987,9.922l38.337-12.634l17.872,22.468l-10.213,22.979
									C588.953,354.131,592.128,356.244,594.841,358.897z"/>
							</g>
						</g>
					</g>
					<g>
						<g>
							<g>
								<path style="fill:#4A292F;" d="M540.549,535.372c0.102,11.366-2.646,18.038-2.646,18.038h-41.489
									c0,0,3.088-7.167,18.454-8.865c9.227-1.019,10.279-9.173,10.279-9.173H540.549z"/>
							</g>
						</g>
					</g>
					<g>
						<g>
							<g>
								<path style="fill:#4A292F;" d="M600.698,535.372c2.443,9.513,2.85,18.038,2.85,18.038h-42.998c0,0,3.088-7.167,18.454-8.865
									c9.227-1.019,6.293-9.173,6.293-9.173H600.698z"/>
							</g>
						</g>
					</g>
					<g>
						<g>
							<g>
								<path style="fill:#5E3B3B;" d="M568.384,344.446c7.677,0.137,13.827-0.724,13.827-0.724s15.673,27.149,0,41.418
									l26.018,150.464c0,0-7.328,8.895-50.071,2.224l-3.628-118.219L568.384,344.446z"/>
							</g>
						</g>
					</g>
					<g>
						<g>
							<g>
								<path style="fill:#4A292F;" d="M570.454,539.434c-3.73-0.38-7.82-0.91-12.3-1.61l-3.63-118.22l0.62-3.39l5.39-5.73
									L570.454,539.434z"/>
							</g>
						</g>
					</g>
					<g>
						<g>
							<g>
								<path style="fill:#77B6F3;" d="M561.857,348.817c0,0-21.204-4.771-21.204-4.077c0,0.583-16.047,53.294-27.126,103.27
									c-10.037,45.274-13.21,88.304-13.21,88.304c19.947,10.007,48.85,2.224,48.85,2.224l-2.372-86.313l22.797-67.086
									c0,0,13.434-9.266,4.071-41.141L561.857,348.817z"/>
							</g>
						</g>
					</g>
					<g>
						<g>
							<g>
								
									<rect x="527.905" y="386.122" transform="matrix(0.2109 -0.9775 0.9775 0.2109 65.2737 854.1029)" style="fill:#FFFFFF;" width="67.496" height="1"/>
							</g>
						</g>
					</g>
					<g>
						<g>
							<g>
								<path style="fill:#FFFFFF;" d="M585.792,541.059c-7.013,0-16.076-0.667-27.75-2.489l0.23-1.482
									c37.675,5.881,47.59-0.476,49.148-1.754l-26.02-150.471l0.305-0.277c15.042-13.695,0.009-40.223-0.144-40.489l1.299-0.75
									c0.159,0.275,15.592,27.487,0.159,42.067l26.007,150.401l-0.219,0.266C608.582,536.354,604.415,541.059,585.792,541.059z"/>
							</g>
						</g>
					</g>
					<g>
						<g>
							<g>
								<path style="fill:#5E3B3B;" d="M540.653,344.74c0,0.583-17.011,51.705-27.126,103.27
									c-8.927,45.506-13.21,88.304-13.21,88.304c19.947,10.007,48.85,2.224,48.85,2.224l-2.372-86.313l22.797-67.086
									c0,0,14.666-10.326,5.303-42.201C574.894,342.938,540.653,344.045,540.653,344.74z"/>
							</g>
						</g>
					</g>
					<g>
						<g>
							<g>
								<path style="fill:#FFFFFF;" d="M525.555,542.138c-8.395,0.001-17.697-1.2-25.576-5.153l0.673-1.34
									c17.93,8.994,43.607,3.319,47.748,2.313l-2.359-85.846l0.044-0.127l22.877-67.321l0.204-0.141
									c0.097-0.068,9.84-7.181,6.27-29.486l1.48-0.236c3.485,21.775-5.169,29.611-6.689,30.802l-22.679,66.738l2.385,86.769
									l-0.571,0.154C549.185,539.31,538.439,542.138,525.555,542.138z"/>
							</g>
						</g>
					</g>
					<g>
						<g>
							<g>
								<g>
									<g>
										<path style="fill:#FFB789;" d="M535.349,273.59c0.31-0.877,1.21-3.736,1.9-4.315c0.639-0.537,4.484-2.947,3.862-3.792
											c-0.653-0.886-2.928,1.375-3.334,0.593c-0.251-0.482,4.133-4.996,3.04-5.699c-0.718-0.461-2.99,2.678-3.285,2.3
											c-0.274-0.351,3.341-3.549,2.307-4.286c-1.084-0.772-2.673,3.277-3.155,2.893c-0.239-0.19,2.63-3.95,1.772-4.53
											c-1.148-0.775-3.335,3.968-3.885,3.659c-0.27-0.151,0.8-1.661,1.321-2.652c0.289-0.549-0.106-0.915-0.454-0.695
											c-3.608,2.277-5.491,9.821-5.955,10.388c-0.69,0.843-1.346,1.686-1.97,2.529L535.349,273.59z"/>
									</g>
								</g>
							</g>
						</g>
					</g>
					<g>
						<g>
							<g>
								<path style="fill:#F75D59;" d="M538.035,345.703l6.671,3.763l5.872-1.617l5.447,4.128l26.723-6.468l6.894-7.021
									l-2.021-4.064l4.83-9.468c0,0-0.265-18.205-0.886-25.116l-56.983,10.06L538.035,345.703z"/>
							</g>
						</g>
					</g>
					<g>
						<g>
							<g>
								<path style="fill:#633F3F;" d="M574.758,334.435l-1.471-0.301c1.03-5.048,2.448-13.026,3.353-22.361l1.492,0.145
									C577.221,321.317,575.794,329.351,574.758,334.435z"/>
							</g>
						</g>
					</g>
					<g>
						<g>
							<g>
								<path style="fill:#F75D59;" d="M556.282,279.43l-16.001,36.77c0,0-19.302,17.893-29.958,13.436
									c-9.232-3.862-10.805-11.541-7.951-19.46c3.355-9.306,24.206-41.561,24.206-41.561c3.487,2.632,6.976,4.593,10.468,5.106
									l-8.878,30.937L556.282,279.43z"/>
							</g>
						</g>
					</g>
					<g>
						<g>
							<g>
								<path style="fill:#633F3F;" d="M585.84,343.478l-1.076-1.045l3.971-4.087l-1.971-3.964l0.221-0.354
									c1.737-2.797,4.556-7.757,4.722-9.16c0.526-4.459,0.247-13.506,0.044-20.112c-0.057-1.838-0.108-3.515-0.138-4.9l1.5-0.031
									c0.029,1.38,0.08,3.053,0.137,4.885c0.205,6.652,0.486,15.764-0.053,20.334c-0.236,1.995-3.722,7.794-4.718,9.419
									l2.072,4.167L585.84,343.478z"/>
							</g>
						</g>
					</g>
					<g>
						<g>
							<g>
								<path style="fill:#633F3F;" d="M514.178,309.984l-1.209-0.889c0.663-0.901,16.335-22.152,25.484-27.309l0.736,1.307
									C530.321,288.092,514.338,309.766,514.178,309.984z"/>
							</g>
						</g>
					</g>
					<g>
						<g>
							<g>
								<path style="fill:#633F3F;" d="M539.089,282.862l-0.536-0.844c5.417-3.439,9.48-3.778,13.411-4.106l0.777-0.065l0.086,0.996
									l-0.78,0.066C548.238,279.227,544.298,279.555,539.089,282.862z"/>
							</g>
						</g>
					</g>
					<g>
						<g>
							<g>
								<path style="fill:#633F3F;" d="M533.694,322.516l-0.823-1.254c4.153-2.726,6.838-5.548,6.865-5.576l1.091,1.029
									C540.713,316.835,538.002,319.688,533.694,322.516z"/>
							</g>
						</g>
					</g>
					<g>
						<g>
							<g>
								<path style="fill:#4A292F;" d="M563.274,235.557c8.895-1.046,21.913,2.04,21.716,15.459
									c-0.181,12.331-14.369,15.13-14.369,15.13s-2.723-2.551-2.17-7.894c0.192-1.851-0.082-3.511-1.638-4.319
									c-1.29-0.67-3.001-0.507-4.029,0.52c-0.774,0.773-1.823,1.496-2.375,0.477c-0.941-1.738,0.652-6.733-3.113-8.977
									c-2.677-1.596-3.706-3.362-3.745-4.752C553.472,238.445,556.451,236.359,563.274,235.557z"/>
							</g>
						</g>
					</g>
					<g>
						<g>
							<g>
								<path style="fill:#4A292F;" d="M565.626,260.865c-1.146,0-1.892-0.729-1.933-0.77l0.704-0.71
									c0.035,0.034,0.875,0.828,2.058,0.285c1.273-0.583,1.56-1.774,1.571-1.825l0.977,0.215c-0.015,0.07-0.393,1.721-2.132,2.519
									C566.42,260.787,566.001,260.865,565.626,260.865z"/>
							</g>
						</g>
					</g>
					<g>
						<g>
							<g>
								<path style="fill:#633F3F;" d="M557.383,271.126c-0.714,0-1.169-0.059-1.225-0.066l0.201-1.486
									c0.042,0.005,3.979,0.496,7.26-1.788l0.857,1.232C561.868,270.832,558.978,271.126,557.383,271.126z"/>
							</g>
						</g>
					</g>
					<g>
						<g>
							<g>
								<path style="fill:#4A292F;" d="M584.274,247.109c0,0,7.977-1.856,11.732,2.193c6.006,6.479,2.321,21.308,7.349,27.016
									c6.79,7.708,9.15,21.553-0.351,26.176c-8.988,4.373-20.123-3.044-15.983-19.895c2.85-11.6,3.584-21.593,3.076-25.811
									c-0.821-6.808-2.445-6.975-5.635-8.034L584.274,247.109z"/>
							</g>
						</g>
					</g>
					<g>
						<g>
							<g>
								<path style="fill:#F75D59;" d="M553.812,278.147l1.957-5.957c5.526,0.85,11.058-0.246,16.596-3.234l2.128,8.596
									C574.493,277.551,560.791,281.381,553.812,278.147z"/>
							</g>
						</g>
					</g>
					<g>
						<g>
							<g>
								<path style="fill:#4A292F;" d="M587.032,300.975c-4.3-4.132-5.397-11.175-3.009-19.323
									c3.185-10.871,4.517-20.997,4.184-25.382c-0.456-6.001-1.584-6.425-4.309-7.447l-0.486-0.184l0.535-1.401l0.477,0.18
									c3.208,1.204,4.773,2.078,5.278,8.738c0.332,4.381-0.854,14.36-4.24,25.918c-2.225,7.594-1.274,14.089,2.608,17.819
									L587.032,300.975z"/>
							</g>
						</g>
					</g>
					<g>
						<g>
							<g>
								<path style="fill:#4A292F;" d="M556.153,244.487c-2-0.979-6.575-5.936-1.681-8.957c5.763-3.558,18.106,3.936,18.106,3.936
									L556.153,244.487z"/>
							</g>
						</g>
					</g>
					<g>
						<g>
							<g>
								<polygon style="fill:#633F3F;" points="544.603,350.268 537.666,346.356 538.404,345.05 544.809,348.663 559.45,344.784 
									559.835,346.233 								"/>
							</g>
						</g>
					</g>
					<g>
						<g>
							<g>
								<polygon style="fill:#633F3F;" points="555.853,352.786 550.382,348.66 551.285,347.463 556.197,351.167 568.281,348.353 
									568.621,349.813 								"/>
							</g>
						</g>
					</g>
					<g>
						<g>
							<g>
								<path style="fill:#633F3F;" d="M563.034,281.68c-3.096,0-5.642-0.614-7.099-1.067l0.445-1.433
									c2.906,0.905,10.45,2.496,17.701-2.257l0.822,1.255C570.766,280.89,566.546,281.68,563.034,281.68z"/>
							</g>
						</g>
					</g>
					<g>
						<g>
							<g>
								
									<rect x="570.509" y="272.046" transform="matrix(0.9744 -0.2247 0.2247 0.9744 -47.0285 135.3667)" style="fill:#633F3F;" width="1.499" height="4.542"/>
							</g>
						</g>
					</g>
					<g>
						<g>
							<g>
								<path style="fill:#633F3F;" d="M596.967,354.813c-2.022-4.198-8.429-5.535-8.493-5.548l0.295-1.471
									c0.293,0.059,7.202,1.491,9.55,6.368L596.967,354.813z"/>
							</g>
						</g>
					</g>
					<g>
						<g>
							<g>
								<g>
									<polygon style="fill:#F75D59;" points="526.578,268.615 521.663,272.742 521.216,281.04 									"/>
								</g>
							</g>
						</g>
						<g>
							<g>
								<g>
									<polygon style="fill:#F75D59;" points="515.791,286.21 518.089,277.019 524.855,273.21 527.855,278.828 									"/>
								</g>
							</g>
						</g>
					</g>
					<g>
						<g>
							<g>
								<path style="fill:#633F3F;" d="M533.705,278.362c-5.125,0-9.139-4.711-9.318-4.925l1.149-0.964
									c0.042,0.049,4.229,4.947,9.032,4.335l0.192,1.487C534.404,278.34,534.052,278.362,533.705,278.362z"/>
							</g>
						</g>
					</g>
					<g>
						<g>
							<g>
								
									<rect x="543.239" y="210.922" transform="matrix(0.9113 -0.4116 0.4116 0.9113 -42.1003 243.4893)" style="fill:#633F3F;" width="2" height="17.127"/>
							</g>
						</g>
					</g>
					<g>
						<g>
							<g>
								
									<rect x="532.121" y="220.704" transform="matrix(0.528 -0.8493 0.8493 0.528 56.9421 560.9836)" style="fill:#633F3F;" width="2" height="17.127"/>
							</g>
						</g>
					</g>
					<g>
						<g>
							<g>
								
									<rect x="520.431" y="241.693" transform="matrix(0.9998 -0.018 0.018 0.9998 -4.2937 9.5863)" style="fill:#633F3F;" width="17.127" height="2"/>
							</g>
						</g>
					</g>
				</g>
				<g>
					<g>
						<g>
							
								<rect x="537.614" y="456.138" transform="matrix(0.5899 -0.8075 0.8075 0.5899 -146.0901 626.1133)" style="fill:#FFFFFF;" width="11.548" height="1.5"/>
						</g>
					</g>
				</g>
				<g>
					<g>
						<g>
							<path style="fill:#FFFFFF;" d="M548.444,368.246c-2.688,0-4.854-0.82-6.447-2.445c-3.204-3.266-2.869-8.562-2.853-8.785
								l1.496,0.104c-0.003,0.049-0.298,4.859,2.433,7.636c1.418,1.442,3.44,2.102,6.007,1.974l0.077,1.498
								C548.915,368.24,548.678,368.246,548.444,368.246z"/>
						</g>
					</g>
				</g>
			</g>
			<g>
				<g>
					<g>
						<path style="fill:#5E3B3B;" d="M220.126,532.416h110.027c6.675,0,12.136-5.461,12.136-12.136l5-205.516
							c0-6.675-5.461-12.136-12.136-12.136H215.126c-6.674,0-12.136,5.461-12.136,12.136l5,205.516
							C207.99,526.955,213.451,532.416,220.126,532.416z"/>
					</g>
				</g>
			</g>
			<g>
				<g>
					<g>
						<path style="fill:#633F3F;" d="M330.153,533.416H220.126c-7.243,0-13.136-5.893-13.136-13.136l-4.999-205.492
							c-0.001-7.268,5.892-13.16,13.135-13.16h120.027c7.243,0,13.135,5.893,13.135,13.136l-5.001,205.541
							C343.288,527.523,337.395,533.416,330.153,533.416z M215.126,303.628c-6.14,0-11.136,4.995-11.136,11.136l4.999,205.492
							c0.001,6.165,4.996,11.16,11.136,11.16h110.027c6.14,0,11.135-4.995,11.135-11.136l5-205.541
							c0-6.116-4.996-11.111-11.136-11.111H215.126z"/>
					</g>
				</g>
			</g>
			<g>
				<g>
					<g>
						<path style="fill:#FFFFFF;" d="M229.126,532.416h110.027c6.675,0,12.136-5.461,12.136-12.136l5-205.516
							c0-6.675-5.461-12.136-12.136-12.136H224.126c-6.674,0-12.136,5.461-12.136,12.136l5,205.516
							C216.99,526.955,222.451,532.416,229.126,532.416z"/>
					</g>
				</g>
			</g>
			<g>
				<g>
					<g>
						<path style="fill:#DCE7F9;" d="M241.709,391.479h85.371c6.855,0,12.464-5.608,12.464-12.463v-45.03
							c0-6.855-5.608-12.464-12.464-12.464h-85.371c-6.855,0-12.463,5.609-12.463,12.464v45.03
							C229.246,385.871,234.854,391.479,241.709,391.479z"/>
					</g>
				</g>
			</g>
			<g>
				<g>
					<g>
						<path style="fill:#633F3F;" d="M339.153,533.416H229.126c-7.243,0-13.136-5.893-13.136-13.136l-4.999-205.492
							c-0.001-7.268,5.892-13.16,13.135-13.16h120.027c7.243,0,13.135,5.893,13.135,13.136h-2c0-6.141-4.995-11.136-11.135-11.136
							H224.126c-6.14,0-11.136,4.995-11.136,11.136l4.999,205.492c0.001,6.165,4.996,11.16,11.136,11.16h110.027
							c6.14,0,11.135-4.995,11.135-11.136l0.48-19.745l1.999,0.049l-0.48,19.721C352.288,527.523,346.395,533.416,339.153,533.416z"
							/>
					</g>
				</g>
			</g>
			<g>
				<g>
					<g>
						<path style="fill:#5E3B3B;" d="M327.08,392.479h-85.371c-7.424,0-13.463-6.04-13.463-13.464v-45.03
							c0-7.424,6.04-13.463,13.463-13.463h85.371c7.424,0,13.463,6.039,13.463,13.463v45.03
							C340.543,386.439,334.504,392.479,327.08,392.479z M241.709,322.522c-6.321,0-11.463,5.143-11.463,11.463v45.03
							c0,6.321,5.143,11.464,11.463,11.464h85.371c6.321,0,11.463-5.143,11.463-11.464v-45.03c0-6.32-5.143-11.463-11.463-11.463
							H241.709z"/>
					</g>
				</g>
			</g>
			<g>
				<g>
					<g>
						
							<rect x="209.304" y="368.486" transform="matrix(0.9997 -0.0241 0.0241 0.9997 -10.1134 5.1952)" style="fill:#FFFFFF;" width="1.5" height="105.733"/>
					</g>
				</g>
			</g>
			<g>
				<g>
					<g>
						<path style="fill:#AFC9F9;" d="M316.341,431.373h11.489c3.019,0,5.489-2.47,5.489-5.489v-4.851
							c0-3.019-2.47-5.489-5.489-5.489h-11.489c-3.019,0-5.489,2.47-5.489,5.489v4.851
							C310.852,428.903,313.322,431.373,316.341,431.373z"/>
					</g>
				</g>
			</g>
			<g>
				<g>
					<g>
						<path style="fill:#F2695F;" d="M316.341,431.373h11.489c3.019,0,5.489-2.47,5.489-5.489v-4.851
							c0-3.019-2.47-5.489-5.489-5.489h-11.489c-3.019,0-5.489,2.47-5.489,5.489v4.851
							C310.852,428.903,313.322,431.373,316.341,431.373z"/>
					</g>
				</g>
			</g>
			<g>
				<g>
					<g>
						<path style="fill:#AFC9F9;" d="M316.341,457.16h11.489c3.019,0,5.489-2.47,5.489-5.489v-4.851c0-3.019-2.47-5.489-5.489-5.489
							h-11.489c-3.019,0-5.489,2.47-5.489,5.489v4.851C310.852,454.69,313.322,457.16,316.341,457.16z"/>
					</g>
				</g>
			</g>
			<g>
				<g>
					<g>
						<path style="fill:#AFC9F9;" d="M316.341,482.692h11.489c3.019,0,5.489-2.47,5.489-5.489v-4.851
							c0-3.019-2.47-5.489-5.489-5.489h-11.489c-3.019,0-5.489,2.47-5.489,5.489v4.851
							C310.852,480.222,313.322,482.692,316.341,482.692z"/>
					</g>
				</g>
			</g>
			<g>
				<g>
					<g>
						<path style="fill:#AFC9F9;" d="M316.341,508.416h11.489c3.019,0,5.489-2.47,5.489-5.489v-4.851
							c0-3.019-2.47-5.489-5.489-5.489h-11.489c-3.019,0-5.489,2.47-5.489,5.489v4.851
							C310.852,505.945,313.322,508.416,316.341,508.416z"/>
					</g>
				</g>
			</g>
			<g>
				<g>
					<g>
						<g>
							<path style="fill:#AFCAF9;" d="M279.895,431.373h11.489c3.019,0,5.489-2.47,5.489-5.489v-4.851
								c0-3.019-2.47-5.489-5.489-5.489h-11.489c-3.019,0-5.489,2.47-5.489,5.489v4.851
								C274.405,428.903,276.875,431.373,279.895,431.373z"/>
						</g>
					</g>
				</g>
				<g>
					<g>
						<g>
							<path style="fill:#AFCAF9;" d="M243.448,431.373h11.489c3.019,0,5.489-2.47,5.489-5.489v-4.851
								c0-3.019-2.47-5.489-5.489-5.489h-11.489c-3.019,0-5.489,2.47-5.489,5.489v4.851
								C237.958,428.903,240.428,431.373,243.448,431.373z"/>
						</g>
					</g>
				</g>
				<g>
					<g>
						<g>
							<path style="fill:#AFCAF9;" d="M316.341,457.16h11.489c3.019,0,5.489-2.47,5.489-5.489v-4.851
								c0-3.019-2.47-5.489-5.489-5.489h-11.489c-3.019,0-5.489,2.47-5.489,5.489v4.851
								C310.852,454.69,313.322,457.16,316.341,457.16z"/>
						</g>
					</g>
				</g>
				<g>
					<g>
						<g>
							<path style="fill:#AFCAF9;" d="M279.895,457.16h11.489c3.019,0,5.489-2.47,5.489-5.489v-4.851
								c0-3.019-2.47-5.489-5.489-5.489h-11.489c-3.019,0-5.489,2.47-5.489,5.489v4.851
								C274.405,454.69,276.875,457.16,279.895,457.16z"/>
						</g>
					</g>
				</g>
				<g>
					<g>
						<g>
							<path style="fill:#AFCAF9;" d="M243.448,457.16h11.489c3.019,0,5.489-2.47,5.489-5.489v-4.851
								c0-3.019-2.47-5.489-5.489-5.489h-11.489c-3.019,0-5.489,2.47-5.489,5.489v4.851
								C237.958,454.69,240.428,457.16,243.448,457.16z"/>
						</g>
					</g>
				</g>
				<g>
					<g>
						<g>
							<path style="fill:#AFCAF9;" d="M316.341,482.692h11.489c3.019,0,5.489-2.47,5.489-5.489v-4.851
								c0-3.019-2.47-5.489-5.489-5.489h-11.489c-3.019,0-5.489,2.47-5.489,5.489v4.851
								C310.852,480.222,313.322,482.692,316.341,482.692z"/>
						</g>
					</g>
				</g>
				<g>
					<g>
						<g>
							<path style="fill:#AFCAF9;" d="M279.895,482.692h11.489c3.019,0,5.489-2.47,5.489-5.489v-4.851
								c0-3.019-2.47-5.489-5.489-5.489h-11.489c-3.019,0-5.489,2.47-5.489,5.489v4.851
								C274.405,480.222,276.875,482.692,279.895,482.692z"/>
						</g>
					</g>
				</g>
				<g>
					<g>
						<g>
							<path style="fill:#AFCAF9;" d="M243.448,482.692h11.489c3.019,0,5.489-2.47,5.489-5.489v-4.851
								c0-3.019-2.47-5.489-5.489-5.489h-11.489c-3.019,0-5.489,2.47-5.489,5.489v4.851
								C237.958,480.222,240.428,482.692,243.448,482.692z"/>
						</g>
					</g>
				</g>
				<g>
					<g>
						<g>
							<path style="fill:#AFCAF9;" d="M243.448,508.416h11.489c3.019,0,5.489-2.47,5.489-5.489v-4.851
								c0-3.019-2.47-5.489-5.489-5.489h-11.489c-3.019,0-5.489,2.47-5.489,5.489v4.851
								C237.958,505.945,240.428,508.416,243.448,508.416z"/>
						</g>
					</g>
				</g>
				<g>
					<g>
						<g>
							<path style="fill:#AFCAF9;" d="M316.341,508.416h11.489c3.019,0,5.489-2.47,5.489-5.489v-4.851
								c0-3.019-2.47-5.489-5.489-5.489h-11.489c-3.019,0-5.489,2.47-5.489,5.489v4.851
								C310.852,505.945,313.322,508.416,316.341,508.416z"/>
						</g>
					</g>
				</g>
				<g>
					<g>
						<g>
							<path style="fill:#AFCAF9;" d="M279.895,508.416h11.489c3.019,0,5.489-2.47,5.489-5.489v-4.851
								c0-3.019-2.47-5.489-5.489-5.489h-11.489c-3.019,0-5.489,2.47-5.489,5.489v4.851
								C274.405,505.945,276.875,508.416,279.895,508.416z"/>
						</g>
					</g>
				</g>
			</g>
			<g>
				<g>
					<g>
						<g>
							<path style="fill:#5E3B3B;" d="M327.831,432.373h-11.49c-3.578,0-6.489-2.911-6.489-6.489v-4.852
								c0-3.578,2.911-6.489,6.489-6.489h11.49c3.578,0,6.489,2.911,6.489,6.489v4.852
								C334.32,429.462,331.409,432.373,327.831,432.373z M316.341,416.543c-2.475,0-4.489,2.014-4.489,4.489v4.852
								c0,2.476,2.014,4.489,4.489,4.489h11.49c2.476,0,4.489-2.014,4.489-4.489v-4.852c0-2.476-2.014-4.489-4.489-4.489H316.341z"
								/>
						</g>
					</g>
				</g>
				<g>
					<g>
						<g>
							<path style="fill:#5E3B3B;" d="M291.384,432.373h-11.489c-3.578,0-6.489-2.911-6.489-6.489v-4.852
								c0-3.578,2.911-6.489,6.489-6.489h11.489c3.579,0,6.49,2.911,6.49,6.489v4.852
								C297.873,429.462,294.962,432.373,291.384,432.373z M279.894,416.543c-2.476,0-4.489,2.014-4.489,4.489v4.852
								c0,2.476,2.014,4.489,4.489,4.489h11.489c2.476,0,4.49-2.014,4.49-4.489v-4.852c0-2.476-2.014-4.489-4.49-4.489H279.894z"/>
						</g>
					</g>
				</g>
				<g>
					<g>
						<g>
							<path style="fill:#5E3B3B;" d="M254.937,432.373h-11.489c-3.578,0-6.489-2.911-6.489-6.489v-4.852
								c0-3.578,2.911-6.489,6.489-6.489h11.489c3.579,0,6.49,2.911,6.49,6.489v4.852
								C261.427,429.462,258.516,432.373,254.937,432.373z M243.448,416.543c-2.476,0-4.489,2.014-4.489,4.489v4.852
								c0,2.476,2.014,4.489,4.489,4.489h11.489c2.476,0,4.49-2.014,4.49-4.489v-4.852c0-2.476-2.014-4.489-4.49-4.489H243.448z"/>
						</g>
					</g>
				</g>
				<g>
					<g>
						<g>
							<path style="fill:#5E3B3B;" d="M327.831,458.16h-11.49c-3.578,0-6.489-2.911-6.489-6.489v-4.851
								c0-3.579,2.911-6.49,6.489-6.49h11.49c3.578,0,6.489,2.911,6.489,6.49v4.851C334.32,455.249,331.409,458.16,327.831,458.16z
								 M316.341,442.33c-2.475,0-4.489,2.015-4.489,4.49v4.851c0,2.476,2.014,4.489,4.489,4.489h11.49
								c2.476,0,4.489-2.014,4.489-4.489v-4.851c0-2.476-2.014-4.49-4.489-4.49H316.341z"/>
						</g>
					</g>
				</g>
				<g>
					<g>
						<g>
							<path style="fill:#5E3B3B;" d="M291.384,458.16h-11.489c-3.578,0-6.489-2.911-6.489-6.489v-4.851
								c0-3.579,2.911-6.49,6.489-6.49h11.489c3.579,0,6.49,2.911,6.49,6.49v4.851C297.873,455.249,294.962,458.16,291.384,458.16z
								 M279.894,442.33c-2.476,0-4.489,2.015-4.489,4.49v4.851c0,2.476,2.014,4.489,4.489,4.489h11.489
								c2.476,0,4.49-2.014,4.49-4.489v-4.851c0-2.476-2.014-4.49-4.49-4.49H279.894z"/>
						</g>
					</g>
				</g>
				<g>
					<g>
						<g>
							<path style="fill:#5E3B3B;" d="M254.937,458.16h-11.489c-3.578,0-6.489-2.911-6.489-6.489v-4.851
								c0-3.579,2.911-6.49,6.489-6.49h11.489c3.579,0,6.49,2.911,6.49,6.49v4.851C261.427,455.249,258.516,458.16,254.937,458.16z
								 M243.448,442.33c-2.476,0-4.489,2.015-4.489,4.49v4.851c0,2.476,2.014,4.489,4.489,4.489h11.489
								c2.476,0,4.49-2.014,4.49-4.489v-4.851c0-2.476-2.014-4.49-4.49-4.49H243.448z"/>
						</g>
					</g>
				</g>
				<g>
					<g>
						<g>
							<path style="fill:#5E3B3B;" d="M327.831,483.692h-11.49c-3.578,0-6.489-2.911-6.489-6.489v-4.852
								c0-3.578,2.911-6.489,6.489-6.489h11.49c3.578,0,6.489,2.911,6.489,6.489v4.852
								C334.32,480.781,331.409,483.692,327.831,483.692z M316.341,467.862c-2.475,0-4.489,2.014-4.489,4.489v4.852
								c0,2.476,2.014,4.489,4.489,4.489h11.49c2.476,0,4.489-2.014,4.489-4.489v-4.852c0-2.476-2.014-4.489-4.489-4.489H316.341z"
								/>
						</g>
					</g>
				</g>
				<g>
					<g>
						<g>
							<path style="fill:#5E3B3B;" d="M291.384,483.692h-11.489c-3.578,0-6.489-2.911-6.489-6.489v-4.852
								c0-3.578,2.911-6.489,6.489-6.489h11.489c3.579,0,6.49,2.911,6.49,6.489v4.852
								C297.873,480.781,294.962,483.692,291.384,483.692z M279.894,467.862c-2.476,0-4.489,2.014-4.489,4.489v4.852
								c0,2.476,2.014,4.489,4.489,4.489h11.489c2.476,0,4.49-2.014,4.49-4.489v-4.852c0-2.476-2.014-4.489-4.49-4.489H279.894z"/>
						</g>
					</g>
				</g>
				<g>
					<g>
						<g>
							<path style="fill:#5E3B3B;" d="M254.937,483.692h-11.489c-3.578,0-6.489-2.911-6.489-6.489v-4.852
								c0-3.578,2.911-6.489,6.489-6.489h11.489c3.579,0,6.49,2.911,6.49,6.489v4.852
								C261.427,480.781,258.516,483.692,254.937,483.692z M243.448,467.862c-2.476,0-4.489,2.014-4.489,4.489v4.852
								c0,2.476,2.014,4.489,4.489,4.489h11.489c2.476,0,4.49-2.014,4.49-4.489v-4.852c0-2.476-2.014-4.489-4.49-4.489H243.448z"/>
						</g>
					</g>
				</g>
				<g>
					<g>
						<g>
							<path style="fill:#5E3B3B;" d="M327.831,509.416h-11.49c-3.578,0-6.489-2.911-6.489-6.489v-4.852
								c0-3.578,2.911-6.489,6.489-6.489h11.49c3.578,0,6.489,2.911,6.489,6.489v4.852
								C334.32,506.505,331.409,509.416,327.831,509.416z M316.341,493.586c-2.475,0-4.489,2.014-4.489,4.489v4.852
								c0,2.476,2.014,4.489,4.489,4.489h11.49c2.476,0,4.489-2.014,4.489-4.489v-4.852c0-2.476-2.014-4.489-4.489-4.489H316.341z"
								/>
						</g>
					</g>
				</g>
				<g>
					<g>
						<g>
							<path style="fill:#5E3B3B;" d="M291.384,509.416h-11.489c-3.578,0-6.489-2.911-6.489-6.489v-4.852
								c0-3.578,2.911-6.489,6.489-6.489h11.489c3.579,0,6.49,2.911,6.49,6.489v4.852
								C297.873,506.505,294.962,509.416,291.384,509.416z M279.894,493.586c-2.476,0-4.489,2.014-4.489,4.489v4.852
								c0,2.476,2.014,4.489,4.489,4.489h11.489c2.476,0,4.49-2.014,4.49-4.489v-4.852c0-2.476-2.014-4.489-4.49-4.489H279.894z"/>
						</g>
					</g>
				</g>
				<g>
					<g>
						<g>
							<path style="fill:#5E3B3B;" d="M254.937,509.416h-11.489c-3.578,0-6.489-2.911-6.489-6.489v-4.852
								c0-3.578,2.911-6.489,6.489-6.489h11.489c3.579,0,6.49,2.911,6.49,6.489v4.852
								C261.427,506.505,258.516,509.416,254.937,509.416z M243.448,493.586c-2.476,0-4.489,2.014-4.489,4.489v4.852
								c0,2.476,2.014,4.489,4.489,4.489h11.489c2.476,0,4.49-2.014,4.49-4.489v-4.852c0-2.476-2.014-4.489-4.49-4.489H243.448z"/>
						</g>
					</g>
				</g>
			</g>
			<g>
				<g>
					<g>
						<circle style="fill:#633F3F;" cx="238.001" cy="381.777" r="2.383"/>
					</g>
				</g>
			</g>
			<g>
				<g>
					<g>
						<g>
							<rect x="648.703" y="518.139" style="fill:#FFC76C;" width="94.979" height="18.383"/>
						</g>
					</g>
				</g>
				<g>
					<g>
						<g>
							<rect x="628.703" y="497.82" style="fill:#FFC76C;" width="94.979" height="18.383"/>
						</g>
					</g>
				</g>
				<g>
					<g>
						<g>
							<rect x="648.639" y="477.565" style="fill:#FFC76C;" width="94.979" height="18.383"/>
						</g>
					</g>
				</g>
				<g>
					<g>
						<g>
							<rect x="657.639" y="477.564" style="fill:#5E3B3B;" width="2" height="18.383"/>
						</g>
					</g>
				</g>
				<g>
					<g>
						<g>
							<rect x="667.639" y="477.564" style="fill:#5E3B3B;" width="2" height="18.383"/>
						</g>
					</g>
				</g>
				<g>
					<g>
						<g>
							<rect x="697.639" y="477.564" style="fill:#5E3B3B;" width="2" height="18.383"/>
						</g>
					</g>
				</g>
				<g>
					<g>
						<g>
							<rect x="717.639" y="477.564" style="fill:#5E3B3B;" width="2" height="18.383"/>
						</g>
					</g>
				</g>
				<g>
					<g>
						<g>
							<rect x="637.703" y="497.82" style="fill:#5E3B3B;" width="2" height="18.383"/>
						</g>
					</g>
				</g>
				<g>
					<g>
						<g>
							<rect x="647.703" y="497.82" style="fill:#5E3B3B;" width="2" height="18.383"/>
						</g>
					</g>
				</g>
				<g>
					<g>
						<g>
							<rect x="677.703" y="497.82" style="fill:#5E3B3B;" width="2" height="18.383"/>
						</g>
					</g>
				</g>
				<g>
					<g>
						<g>
							<rect x="687.703" y="497.82" style="fill:#5E3B3B;" width="2" height="18.383"/>
						</g>
					</g>
				</g>
				<g>
					<g>
						<g>
							<rect x="697.703" y="518.139" style="fill:#5E3B3B;" width="2" height="18.384"/>
						</g>
					</g>
				</g>
				<g>
					<g>
						<g>
							<rect x="717.703" y="518.139" style="fill:#5E3B3B;" width="2" height="18.384"/>
						</g>
					</g>
				</g>
				<g>
					<g>
						<g>
							<rect x="727.703" y="518.139" style="fill:#5E3B3B;" width="2" height="18.384"/>
						</g>
					</g>
				</g>
				<g>
					<g>
						<g>
							<rect x="649.16" y="495.841" style="fill:#5E3B3B;" width="94.469" height="2"/>
						</g>
					</g>
				</g>
				<g>
					<g>
						<g>
							<rect x="628.703" y="516.288" style="fill:#5E3B3B;" width="94.915" height="2"/>
						</g>
					</g>
				</g>
			</g>
		</g>
	</g>
</g>
</svg>
